<mxfile host="app.diagrams.net" modified="2022-05-10T16:15:41.192Z" agent="5.0 (Macintosh; Intel Mac OS X 10_15_7) AppleWebKit/605.1.15 (KHTML, like Gecko) Version/15.4 Safari/605.1.15" etag="7kdqMg0qZewjCIRyk_ER" version="18.0.2" type="github">
  <diagram id="C5RBs43oDa-KdzZeNtuy" name="Page-1">
    <mxGraphModel dx="1941" dy="1707" grid="1" gridSize="10" guides="1" tooltips="1" connect="1" arrows="1" fold="1" page="1" pageScale="1" pageWidth="827" pageHeight="1169" math="0" shadow="0">
      <root>
        <mxCell id="WIyWlLk6GJQsqaUBKTNV-0" />
        <mxCell id="WIyWlLk6GJQsqaUBKTNV-1" parent="WIyWlLk6GJQsqaUBKTNV-0" />
        <mxCell id="WIyWlLk6GJQsqaUBKTNV-4" value="Yes" style="rounded=0;html=1;jettySize=auto;orthogonalLoop=1;fontSize=11;endArrow=block;endFill=0;endSize=8;strokeWidth=1;shadow=0;labelBackgroundColor=none;edgeStyle=orthogonalEdgeStyle;entryX=0.5;entryY=0;entryDx=0;entryDy=0;" parent="WIyWlLk6GJQsqaUBKTNV-1" source="WIyWlLk6GJQsqaUBKTNV-6" target="ZudZkyhexKXhCItllObe-10" edge="1">
          <mxGeometry y="10" relative="1" as="geometry">
            <mxPoint as="offset" />
            <mxPoint x="220" y="410" as="targetPoint" />
          </mxGeometry>
        </mxCell>
        <mxCell id="WIyWlLk6GJQsqaUBKTNV-6" value="&lt;div style=&quot;font-family: Menlo, Monaco, &amp;quot;Courier New&amp;quot;, monospace; line-height: 18px; font-size: 9px;&quot;&gt;&lt;div style=&quot;line-height: 18px;&quot;&gt;&lt;span style=&quot;background-color: rgb(255, 255, 255);&quot;&gt;index &amp;lt; &lt;span style=&quot;caret-color: rgb(156, 220, 254);&quot;&gt;length&lt;/span&gt;&lt;/span&gt;&lt;/div&gt;&lt;/div&gt;" style="rhombus;whiteSpace=wrap;html=1;shadow=0;fontFamily=Helvetica;fontSize=12;align=center;strokeWidth=1;spacing=6;spacingTop=-4;verticalAlign=middle;" parent="WIyWlLk6GJQsqaUBKTNV-1" vertex="1">
          <mxGeometry x="100" y="180" width="240" height="140" as="geometry" />
        </mxCell>
        <mxCell id="ZudZkyhexKXhCItllObe-68" value="" style="edgeStyle=orthogonalEdgeStyle;rounded=0;orthogonalLoop=1;jettySize=auto;html=1;fontSize=9;fontColor=#000000;" edge="1" parent="WIyWlLk6GJQsqaUBKTNV-1" source="ZudZkyhexKXhCItllObe-0" target="ZudZkyhexKXhCItllObe-62">
          <mxGeometry relative="1" as="geometry" />
        </mxCell>
        <mxCell id="ZudZkyhexKXhCItllObe-0" value="Начало" style="ellipse;whiteSpace=wrap;html=1;" vertex="1" parent="WIyWlLk6GJQsqaUBKTNV-1">
          <mxGeometry x="160" y="-160" width="120" height="50" as="geometry" />
        </mxCell>
        <mxCell id="ZudZkyhexKXhCItllObe-47" value="" style="edgeStyle=orthogonalEdgeStyle;rounded=0;orthogonalLoop=1;jettySize=auto;html=1;fontSize=9;fontColor=#000000;" edge="1" parent="WIyWlLk6GJQsqaUBKTNV-1" source="ZudZkyhexKXhCItllObe-10" target="ZudZkyhexKXhCItllObe-46">
          <mxGeometry relative="1" as="geometry" />
        </mxCell>
        <mxCell id="ZudZkyhexKXhCItllObe-10" value="&lt;div style=&quot;text-align: center; text-indent: 0px; line-height: 18px;&quot;&gt;&lt;div style=&quot;line-height: 18px;&quot;&gt;&lt;div style=&quot;caret-color: rgb(0, 0, 0); color: rgb(0, 0, 0); font-family: Menlo, Monaco, &amp;quot;Courier New&amp;quot;, monospace; font-size: 9px; font-style: normal; font-variant-caps: normal; font-weight: 400; letter-spacing: normal; text-transform: none; word-spacing: 0px; text-decoration: none; -webkit-text-stroke-width: 0px;&quot;&gt;&lt;span style=&quot;background-color: rgb(255, 255, 255);&quot;&gt;&lt;font style=&quot;font-size: 9px;&quot;&gt;Print(&quot;Задайте данные для массива&quot;);&lt;/font&gt;&lt;/span&gt;&lt;/div&gt;&lt;div&gt;&lt;span style=&quot;background-color: rgb(255, 255, 255);&quot;&gt;&lt;font&gt;&lt;font face=&quot;Menlo, Monaco, Courier New, monospace&quot;&gt;collection[index] =&amp;nbsp;пользователем&amp;nbsp;вносятся данные для массива;&lt;/font&gt;&lt;/font&gt;&lt;/span&gt;&lt;/div&gt;&lt;/div&gt;&lt;/div&gt;" style="rounded=0;whiteSpace=wrap;html=1;labelBackgroundColor=#FFFFFF;fontSize=9;fontColor=#000000;" vertex="1" parent="WIyWlLk6GJQsqaUBKTNV-1">
          <mxGeometry x="100" y="380" width="240" height="110" as="geometry" />
        </mxCell>
        <mxCell id="ZudZkyhexKXhCItllObe-26" value="" style="edgeStyle=orthogonalEdgeStyle;rounded=0;orthogonalLoop=1;jettySize=auto;html=1;fontSize=9;fontColor=#000000;entryX=0.5;entryY=0;entryDx=0;entryDy=0;" edge="1" parent="WIyWlLk6GJQsqaUBKTNV-1" source="ZudZkyhexKXhCItllObe-16" target="ZudZkyhexKXhCItllObe-28">
          <mxGeometry relative="1" as="geometry">
            <mxPoint x="600" y="585" as="targetPoint" />
          </mxGeometry>
        </mxCell>
        <mxCell id="ZudZkyhexKXhCItllObe-41" value="" style="edgeStyle=orthogonalEdgeStyle;rounded=0;orthogonalLoop=1;jettySize=auto;html=1;fontSize=9;fontColor=#000000;" edge="1" parent="WIyWlLk6GJQsqaUBKTNV-1" source="ZudZkyhexKXhCItllObe-16" target="ZudZkyhexKXhCItllObe-40">
          <mxGeometry relative="1" as="geometry" />
        </mxCell>
        <mxCell id="ZudZkyhexKXhCItllObe-16" value="&lt;div style=&quot;font-family: Menlo, Monaco, &amp;quot;Courier New&amp;quot;, monospace; line-height: 18px;&quot;&gt;&lt;span style=&quot;background-color: rgb(255, 255, 255);&quot;&gt;&lt;font style=&quot;font-size: 9px;&quot;&gt;position &amp;lt; count&lt;/font&gt;&lt;/span&gt;&lt;/div&gt;" style="rhombus;whiteSpace=wrap;html=1;labelBackgroundColor=#FFFFFF;fontSize=9;fontColor=#000000;align=center;" vertex="1" parent="WIyWlLk6GJQsqaUBKTNV-1">
          <mxGeometry x="465" y="362.5" width="270" height="145" as="geometry" />
        </mxCell>
        <mxCell id="ZudZkyhexKXhCItllObe-23" style="edgeStyle=orthogonalEdgeStyle;rounded=0;orthogonalLoop=1;jettySize=auto;html=1;exitX=0.5;exitY=1;exitDx=0;exitDy=0;fontSize=9;fontColor=#000000;" edge="1" parent="WIyWlLk6GJQsqaUBKTNV-1">
          <mxGeometry relative="1" as="geometry">
            <mxPoint x="660" y="1150" as="sourcePoint" />
            <mxPoint x="660" y="1150" as="targetPoint" />
          </mxGeometry>
        </mxCell>
        <mxCell id="ZudZkyhexKXhCItllObe-31" value="" style="edgeStyle=orthogonalEdgeStyle;rounded=0;orthogonalLoop=1;jettySize=auto;html=1;fontSize=9;fontColor=#000000;" edge="1" parent="WIyWlLk6GJQsqaUBKTNV-1" source="ZudZkyhexKXhCItllObe-28" target="ZudZkyhexKXhCItllObe-30">
          <mxGeometry relative="1" as="geometry" />
        </mxCell>
        <mxCell id="ZudZkyhexKXhCItllObe-28" value="&lt;span style=&quot;font-family: Menlo, Monaco, &amp;quot;Courier New&amp;quot;, monospace;&quot;&gt;col[position].Length &amp;lt;= 3&lt;br&gt;&lt;/span&gt;" style="rhombus;whiteSpace=wrap;html=1;fontSize=9;fontColor=#000000;rounded=0;labelBackgroundColor=#FFFFFF;" vertex="1" parent="WIyWlLk6GJQsqaUBKTNV-1">
          <mxGeometry x="515" y="570" width="170" height="150" as="geometry" />
        </mxCell>
        <mxCell id="ZudZkyhexKXhCItllObe-30" value="&lt;span style=&quot;font-family: Menlo, Monaco, &amp;quot;Courier New&amp;quot;, monospace;&quot;&gt;Print(&lt;/span&gt;&lt;span style=&quot;font-family: Menlo, Monaco, &amp;quot;Courier New&amp;quot;, monospace;&quot;&gt;col[position]);&lt;/span&gt;" style="whiteSpace=wrap;html=1;fontSize=9;fontColor=#000000;rounded=0;labelBackgroundColor=#FFFFFF;align=center;" vertex="1" parent="WIyWlLk6GJQsqaUBKTNV-1">
          <mxGeometry x="476" y="750" width="248" height="100" as="geometry" />
        </mxCell>
        <mxCell id="ZudZkyhexKXhCItllObe-34" value="&lt;span style=&quot;caret-color: rgb(0, 0, 0); color: rgb(0, 0, 0); font-family: Helvetica; font-size: 11px; font-style: normal; font-variant-caps: normal; font-weight: 400; letter-spacing: normal; text-align: center; text-indent: 0px; text-transform: none; word-spacing: 0px; -webkit-text-stroke-width: 0px; background-color: rgb(248, 249, 250); text-decoration: none; float: none; display: inline !important;&quot;&gt;Yes&lt;/span&gt;" style="text;whiteSpace=wrap;html=1;fontSize=9;fontColor=#000000;" vertex="1" parent="WIyWlLk6GJQsqaUBKTNV-1">
          <mxGeometry x="610" y="540" width="40" height="30" as="geometry" />
        </mxCell>
        <mxCell id="ZudZkyhexKXhCItllObe-35" value="&lt;span style=&quot;caret-color: rgb(0, 0, 0); color: rgb(0, 0, 0); font-family: Helvetica; font-size: 11px; font-style: normal; font-variant-caps: normal; font-weight: 400; letter-spacing: normal; text-align: center; text-indent: 0px; text-transform: none; word-spacing: 0px; -webkit-text-stroke-width: 0px; background-color: rgb(248, 249, 250); text-decoration: none; float: none; display: inline !important;&quot;&gt;Yes&lt;/span&gt;" style="text;whiteSpace=wrap;html=1;fontSize=9;fontColor=#000000;" vertex="1" parent="WIyWlLk6GJQsqaUBKTNV-1">
          <mxGeometry x="610" y="720" width="40" height="30" as="geometry" />
        </mxCell>
        <mxCell id="ZudZkyhexKXhCItllObe-39" value="&lt;span style=&quot;caret-color: rgb(0, 0, 0); color: rgb(0, 0, 0); font-family: Helvetica; font-size: 11px; font-style: normal; font-variant-caps: normal; font-weight: 400; letter-spacing: normal; text-align: center; text-indent: 0px; text-transform: none; word-spacing: 0px; -webkit-text-stroke-width: 0px; background-color: rgb(248, 249, 250); text-decoration: none; float: none; display: inline !important;&quot;&gt;No&lt;/span&gt;" style="text;whiteSpace=wrap;html=1;fontSize=9;fontColor=#000000;" vertex="1" parent="WIyWlLk6GJQsqaUBKTNV-1">
          <mxGeometry x="700" y="620" width="40" height="30" as="geometry" />
        </mxCell>
        <mxCell id="ZudZkyhexKXhCItllObe-40" value="Конец" style="ellipse;whiteSpace=wrap;html=1;fontSize=9;fontColor=#000000;labelBackgroundColor=#FFFFFF;" vertex="1" parent="WIyWlLk6GJQsqaUBKTNV-1">
          <mxGeometry x="340" y="910" width="120" height="60" as="geometry" />
        </mxCell>
        <mxCell id="ZudZkyhexKXhCItllObe-42" value="&lt;span style=&quot;caret-color: rgb(0, 0, 0); color: rgb(0, 0, 0); font-family: Helvetica; font-size: 11px; font-style: normal; font-variant-caps: normal; font-weight: 400; letter-spacing: normal; text-align: center; text-indent: 0px; text-transform: none; word-spacing: 0px; -webkit-text-stroke-width: 0px; background-color: rgb(248, 249, 250); text-decoration: none; float: none; display: inline !important;&quot;&gt;No&lt;/span&gt;" style="text;whiteSpace=wrap;html=1;fontSize=9;fontColor=#000000;" vertex="1" parent="WIyWlLk6GJQsqaUBKTNV-1">
          <mxGeometry x="425" y="410" width="40" height="30" as="geometry" />
        </mxCell>
        <mxCell id="ZudZkyhexKXhCItllObe-46" value="&lt;span style=&quot;font-family: Menlo, Monaco, &amp;quot;Courier New&amp;quot;, monospace;&quot;&gt;index++&lt;/span&gt;" style="whiteSpace=wrap;html=1;fontSize=9;fontColor=#000000;rounded=0;labelBackgroundColor=#FFFFFF;" vertex="1" parent="WIyWlLk6GJQsqaUBKTNV-1">
          <mxGeometry x="-40" y="302.5" width="120" height="60" as="geometry" />
        </mxCell>
        <mxCell id="ZudZkyhexKXhCItllObe-48" value="" style="endArrow=classic;html=1;rounded=0;fontSize=9;fontColor=#000000;entryX=0;entryY=0.5;entryDx=0;entryDy=0;" edge="1" parent="WIyWlLk6GJQsqaUBKTNV-1" target="WIyWlLk6GJQsqaUBKTNV-6">
          <mxGeometry width="50" height="50" relative="1" as="geometry">
            <mxPoint x="20" y="302.5" as="sourcePoint" />
            <mxPoint x="20" y="190" as="targetPoint" />
            <Array as="points">
              <mxPoint x="20" y="250" />
            </Array>
          </mxGeometry>
        </mxCell>
        <mxCell id="ZudZkyhexKXhCItllObe-54" value="" style="edgeStyle=orthogonalEdgeStyle;rounded=0;orthogonalLoop=1;jettySize=auto;html=1;fontSize=9;fontColor=#000000;" edge="1" parent="WIyWlLk6GJQsqaUBKTNV-1" source="ZudZkyhexKXhCItllObe-49" target="ZudZkyhexKXhCItllObe-53">
          <mxGeometry relative="1" as="geometry" />
        </mxCell>
        <mxCell id="ZudZkyhexKXhCItllObe-49" value="&lt;div style=&quot;font-family: Menlo, Monaco, &amp;quot;Courier New&amp;quot;, monospace; text-align: start; line-height: 18px;&quot;&gt;PrintArray( col[]);&lt;/div&gt;&lt;div style=&quot;font-family: Menlo, Monaco, &amp;quot;Courier New&amp;quot;, monospace; text-align: start; line-height: 18px;&quot;&gt;&lt;div style=&quot;line-height: 18px;&quot;&gt;count = col.Length;&lt;/div&gt;&lt;/div&gt;" style="rounded=0;whiteSpace=wrap;html=1;labelBackgroundColor=#FFFFFF;fontSize=9;fontColor=#000000;" vertex="1" parent="WIyWlLk6GJQsqaUBKTNV-1">
          <mxGeometry x="500" y="205" width="200" height="55" as="geometry" />
        </mxCell>
        <mxCell id="ZudZkyhexKXhCItllObe-50" value="" style="endArrow=classic;html=1;rounded=0;fontSize=9;fontColor=#000000;entryX=0;entryY=0.5;entryDx=0;entryDy=0;" edge="1" parent="WIyWlLk6GJQsqaUBKTNV-1" target="ZudZkyhexKXhCItllObe-49">
          <mxGeometry width="50" height="50" relative="1" as="geometry">
            <mxPoint x="340" y="250" as="sourcePoint" />
            <mxPoint x="390" y="200" as="targetPoint" />
          </mxGeometry>
        </mxCell>
        <mxCell id="ZudZkyhexKXhCItllObe-52" value="&lt;span style=&quot;caret-color: rgb(0, 0, 0); color: rgb(0, 0, 0); font-family: Helvetica; font-size: 11px; font-style: normal; font-variant-caps: normal; font-weight: 400; letter-spacing: normal; text-align: center; text-indent: 0px; text-transform: none; word-spacing: 0px; -webkit-text-stroke-width: 0px; background-color: rgb(248, 249, 250); text-decoration: none; float: none; display: inline !important;&quot;&gt;No&lt;/span&gt;" style="text;whiteSpace=wrap;html=1;fontSize=9;fontColor=#000000;" vertex="1" parent="WIyWlLk6GJQsqaUBKTNV-1">
          <mxGeometry x="410" y="217.5" width="40" height="30" as="geometry" />
        </mxCell>
        <mxCell id="ZudZkyhexKXhCItllObe-55" value="" style="edgeStyle=orthogonalEdgeStyle;rounded=0;orthogonalLoop=1;jettySize=auto;html=1;fontSize=9;fontColor=#000000;" edge="1" parent="WIyWlLk6GJQsqaUBKTNV-1" source="ZudZkyhexKXhCItllObe-53" target="ZudZkyhexKXhCItllObe-16">
          <mxGeometry relative="1" as="geometry" />
        </mxCell>
        <mxCell id="ZudZkyhexKXhCItllObe-53" value="&lt;span style=&quot;font-family: Menlo, Monaco, &amp;quot;Courier New&amp;quot;, monospace;&quot;&gt;position = 0&lt;/span&gt;" style="rounded=0;whiteSpace=wrap;html=1;labelBackgroundColor=#FFFFFF;fontSize=9;fontColor=#000000;" vertex="1" parent="WIyWlLk6GJQsqaUBKTNV-1">
          <mxGeometry x="535" y="290" width="130" height="40" as="geometry" />
        </mxCell>
        <mxCell id="ZudZkyhexKXhCItllObe-56" value="" style="endArrow=classic;html=1;rounded=0;fontSize=9;fontColor=#000000;entryX=0.75;entryY=1;entryDx=0;entryDy=0;" edge="1" parent="WIyWlLk6GJQsqaUBKTNV-1" target="ZudZkyhexKXhCItllObe-57">
          <mxGeometry width="50" height="50" relative="1" as="geometry">
            <mxPoint x="724" y="800" as="sourcePoint" />
            <mxPoint x="790" y="650" as="targetPoint" />
            <Array as="points">
              <mxPoint x="790" y="800" />
            </Array>
          </mxGeometry>
        </mxCell>
        <mxCell id="ZudZkyhexKXhCItllObe-61" value="" style="edgeStyle=orthogonalEdgeStyle;rounded=0;orthogonalLoop=1;jettySize=auto;html=1;fontSize=9;fontColor=#000000;entryX=1;entryY=0.5;entryDx=0;entryDy=0;" edge="1" parent="WIyWlLk6GJQsqaUBKTNV-1" source="ZudZkyhexKXhCItllObe-57" target="ZudZkyhexKXhCItllObe-16">
          <mxGeometry relative="1" as="geometry">
            <Array as="points">
              <mxPoint x="764" y="435" />
            </Array>
          </mxGeometry>
        </mxCell>
        <mxCell id="ZudZkyhexKXhCItllObe-57" value="&lt;span style=&quot;font-family: Menlo, Monaco, &amp;quot;Courier New&amp;quot;, monospace;&quot;&gt;position++&lt;/span&gt;" style="rounded=0;whiteSpace=wrap;html=1;labelBackgroundColor=#FFFFFF;fontSize=9;fontColor=#000000;" vertex="1" parent="WIyWlLk6GJQsqaUBKTNV-1">
          <mxGeometry x="710" y="530" width="107" height="25" as="geometry" />
        </mxCell>
        <mxCell id="ZudZkyhexKXhCItllObe-60" value="" style="endArrow=classic;html=1;rounded=0;fontSize=9;fontColor=#000000;exitX=1;exitY=0.5;exitDx=0;exitDy=0;entryX=0.5;entryY=1;entryDx=0;entryDy=0;" edge="1" parent="WIyWlLk6GJQsqaUBKTNV-1" source="ZudZkyhexKXhCItllObe-28" target="ZudZkyhexKXhCItllObe-57">
          <mxGeometry width="50" height="50" relative="1" as="geometry">
            <mxPoint x="710" y="640" as="sourcePoint" />
            <mxPoint x="760" y="590" as="targetPoint" />
            <Array as="points">
              <mxPoint x="764" y="645" />
            </Array>
          </mxGeometry>
        </mxCell>
        <mxCell id="ZudZkyhexKXhCItllObe-69" value="" style="edgeStyle=orthogonalEdgeStyle;rounded=0;orthogonalLoop=1;jettySize=auto;html=1;fontSize=9;fontColor=#000000;" edge="1" parent="WIyWlLk6GJQsqaUBKTNV-1" source="ZudZkyhexKXhCItllObe-62" target="ZudZkyhexKXhCItllObe-63">
          <mxGeometry relative="1" as="geometry" />
        </mxCell>
        <mxCell id="ZudZkyhexKXhCItllObe-62" value="&lt;span style=&quot;background-color: rgb(248, 249, 250);&quot;&gt;array = [];&lt;/span&gt;" style="rounded=0;whiteSpace=wrap;html=1;labelBackgroundColor=#FFFFFF;fontSize=9;fontColor=#000000;" vertex="1" parent="WIyWlLk6GJQsqaUBKTNV-1">
          <mxGeometry x="160" y="-80" width="120" height="60" as="geometry" />
        </mxCell>
        <mxCell id="ZudZkyhexKXhCItllObe-70" value="" style="edgeStyle=orthogonalEdgeStyle;rounded=0;orthogonalLoop=1;jettySize=auto;html=1;fontSize=9;fontColor=#000000;" edge="1" parent="WIyWlLk6GJQsqaUBKTNV-1" source="ZudZkyhexKXhCItllObe-63" target="ZudZkyhexKXhCItllObe-64">
          <mxGeometry relative="1" as="geometry" />
        </mxCell>
        <mxCell id="ZudZkyhexKXhCItllObe-63" value="&lt;span style=&quot;font-family: Menlo, Monaco, &amp;quot;Courier New&amp;quot;, monospace; text-align: start;&quot;&gt;FillArray(collection[]);&lt;/span&gt;&lt;br style=&quot;&quot;&gt;&lt;span style=&quot;background-color: rgb(248, 249, 250);&quot;&gt;length = collection.Lenght;&lt;/span&gt;" style="rounded=0;whiteSpace=wrap;html=1;labelBackgroundColor=#FFFFFF;fontSize=9;fontColor=#000000;" vertex="1" parent="WIyWlLk6GJQsqaUBKTNV-1">
          <mxGeometry x="135" y="10" width="170" height="80" as="geometry" />
        </mxCell>
        <mxCell id="ZudZkyhexKXhCItllObe-71" value="" style="edgeStyle=orthogonalEdgeStyle;rounded=0;orthogonalLoop=1;jettySize=auto;html=1;fontSize=9;fontColor=#000000;" edge="1" parent="WIyWlLk6GJQsqaUBKTNV-1" source="ZudZkyhexKXhCItllObe-64" target="WIyWlLk6GJQsqaUBKTNV-6">
          <mxGeometry relative="1" as="geometry" />
        </mxCell>
        <mxCell id="ZudZkyhexKXhCItllObe-64" value="&lt;span style=&quot;font-family: Menlo, Monaco, &amp;quot;Courier New&amp;quot;, monospace;&quot;&gt;index = 0&lt;/span&gt;" style="rounded=0;whiteSpace=wrap;html=1;labelBackgroundColor=#FFFFFF;fontSize=9;fontColor=#000000;" vertex="1" parent="WIyWlLk6GJQsqaUBKTNV-1">
          <mxGeometry x="160" y="120" width="120" height="30" as="geometry" />
        </mxCell>
      </root>
    </mxGraphModel>
  </diagram>
</mxfile>
